<?xml version="1.0" encoding="utf-8"?>
<!-- Generator: Adobe Illustrator 17.0.0, SVG Export Plug-In . SVG Version: 6.00 Build 0)  -->
<!DOCTYPE svg PUBLIC "-//W3C//DTD SVG 1.1//EN" "http://www.w3.org/Graphics/SVG/1.1/DTD/svg11.dtd">
<svg version="1.1" id="Capa_1" xmlns="http://www.w3.org/2000/svg" xmlns:xlink="http://www.w3.org/1999/xlink" x="0px" y="0px"
	 width="3932px" height="892px" viewBox="0 0 3932 892" enable-background="new 0 0 3932 892" xml:space="preserve">
<g>
	<g>
		<path fill="#6B1F5F" d="M1230.036,217.437h185.086c149.151,0,252.2,102.371,252.2,235.93v1.356
			c0,133.559-103.049,237.286-252.2,237.286h-185.086V217.437z M1334.446,311.675v286.095h80.676
			c85.423,0,143.048-57.625,143.048-141.691v-1.356c0-84.067-57.625-143.048-143.048-143.048H1334.446z"/>
		<path fill="#6B1F5F" d="M1760.231,217.437h357.972v92.882h-254.239v96.268h223.729v92.882h-223.729v99.658h257.625v92.882
			h-361.357V217.437z"/>
		<path fill="#6B1F5F" d="M2214.497,217.437h112.537l124.744,200.678l124.754-200.678h112.537v474.572h-103.727v-309.83
			l-133.565,202.712h-2.702l-132.208-200.678v307.796h-102.371V217.437z"/>
		<path fill="#6B1F5F" d="M2781.978,456.079v-1.356c0-134.916,106.44-245.424,252.883-245.424
			c146.433,0,251.527,109.152,251.527,244.068v1.356c0,134.916-106.45,245.424-252.883,245.424
			C2887.061,700.147,2781.978,590.995,2781.978,456.079z M3177.236,456.079v-1.356c0-81.354-59.665-149.151-143.731-149.151
			s-142.375,66.441-142.375,147.795v1.356c0,81.354,59.665,149.151,143.731,149.151S3177.236,537.433,3177.236,456.079z"/>
		<path fill="#6B1F5F" d="M3343.362,622.856l61.704-73.895c42.706,35.252,87.452,57.625,141.691,57.625
			c42.706,0,68.475-16.948,68.475-44.746v-1.356c0-26.442-16.275-39.999-95.6-60.337c-95.59-24.407-157.283-50.849-157.283-145.082
			v-1.356c0-86.101,69.148-143.053,166.104-143.053c69.148,0,128.129,21.695,176.271,60.337l-54.24,78.647
			c-42.033-29.154-83.394-46.78-123.387-46.78c-40.004,0-61.021,18.304-61.021,41.355v1.356c0,31.189,20.344,41.355,102.371,62.372
			c96.273,25.085,150.512,59.659,150.512,142.375v1.351c0,94.238-71.871,147.122-174.242,147.122
			C3472.858,698.791,3400.314,673.705,3343.362,622.856z"/>
	</g>
	<g>
		<path fill="#6B1F5F" d="M213.04,217.437h193.897c113.221,0,181.696,67.119,181.696,164.064v1.356
			c0,109.83-85.423,166.782-191.862,166.782h-79.32v142.37H213.04V217.437z M400.161,456.758c52.2,0,82.71-31.189,82.71-71.866
			v-1.356c0-46.78-32.545-71.86-84.745-71.86h-80.676v145.082H400.161z"/>
	</g>
</g>
<ellipse fill="none" stroke="#6B1F5F" stroke-width="17" stroke-miterlimit="10" cx="884.356" cy="427.814" rx="240.96" ry="235.961"/>
<ellipse fill="none" stroke="#6B1F5F" stroke-width="17" stroke-miterlimit="10" cx="901.499" cy="453.528" rx="245.156" ry="238.728"/>
<ellipse fill="none" stroke="#6B1F5F" stroke-width="17" stroke-miterlimit="10" cx="928.356" cy="431.671" rx="240.961" ry="235.961"/>
</svg>
