<?xml version="1.0" encoding="utf-8"?>
<!-- Generator: Adobe Illustrator 16.0.0, SVG Export Plug-In . SVG Version: 6.00 Build 0)  -->
<!DOCTYPE svg PUBLIC "-//W3C//DTD SVG 1.1//EN" "http://www.w3.org/Graphics/SVG/1.1/DTD/svg11.dtd">
<svg version="1.1" id="Layer_1" xmlns="http://www.w3.org/2000/svg" xmlns:xlink="http://www.w3.org/1999/xlink" x="0px" y="0px"
	 width="734px" height="595.28px" viewBox="0 0 734 595.28" enable-background="new 0 0 734 595.28" xml:space="preserve">
<g>
	<path fill-rule="evenodd" clip-rule="evenodd" fill="#4C4C4E" d="M184.482,550.788c0-3.971,1.517-5.526,6.341-5.526
		c2.215,0,4.668,0.272,6.848,0.623l0.228-1.985c-1.944-0.426-4.898-0.698-7.115-0.698c-6.301,0-8.594,2.684-8.594,7.55v11.584
		c0,4.828,1.979,7.545,8.28,7.545c2.53,0,5.484-0.388,7.898-1.089v-10.733h-2.295v9.181c-1.593,0.388-3.853,0.582-5.446,0.582
		c-4.86,0-6.145-1.709-6.145-5.522V550.788z"/>
	<path fill-rule="evenodd" clip-rule="evenodd" fill="#4C4C4E" d="M221.541,543.59v18.551c0,3.62-2.297,5.676-6.647,5.676
		c-4.357,0-6.65-2.056-6.65-5.676V543.59h-2.297v18.551c0,4.396,2.644,7.739,8.947,7.739c6.301,0,8.945-3.344,8.945-7.739V543.59
		H221.541z"/>
	<polygon fill-rule="evenodd" clip-rule="evenodd" fill="#4C4C4E" points="247.715,545.653 247.715,543.586 231.42,543.586 
		231.42,545.653 245.151,545.653 231.029,567.433 231.029,569.492 247.989,569.492 247.989,567.433 233.56,567.433 	"/>
	<polygon fill-rule="evenodd" clip-rule="evenodd" fill="#4C4C4E" points="260.819,569.492 263.116,569.492 263.116,545.653 
		271.087,545.653 271.087,543.593 252.848,543.593 252.848,545.653 260.819,545.653 	"/>
	<rect x="276.909" y="543.59" fill-rule="evenodd" clip-rule="evenodd" fill="#4C4C4E" width="2.293" height="25.902"/>
	<path fill-rule="evenodd" clip-rule="evenodd" fill="#4C4C4E" d="M305.096,562.178V550.9c0-4.434-2.407-7.699-9.062-7.699
		c-6.649,0-9.061,3.266-9.061,7.699v11.277c0,4.438,2.411,7.702,9.061,7.702C302.688,569.88,305.096,566.615,305.096,562.178
		 M296.034,567.82c-4.979,0-6.768-2.022-6.768-5.717v-11.125c0-3.69,1.788-5.717,6.768-5.717c4.979,0,6.769,2.026,6.769,5.717
		v11.125C302.803,565.798,301.013,567.82,296.034,567.82"/>
	<polygon fill-rule="evenodd" clip-rule="evenodd" fill="#4C4C4E" points="327.148,569.492 330.492,569.492 330.492,543.593 
		328.315,543.593 328.315,567.275 316.024,543.593 312.681,543.593 312.681,569.492 314.86,569.492 314.86,545.848 	"/>
	<polygon fill-rule="evenodd" clip-rule="evenodd" fill="#4C4C4E" points="362.844,569.492 366.188,569.492 366.188,543.593 
		364.014,543.593 364.014,567.275 351.72,543.593 348.372,543.593 348.372,569.492 350.555,569.492 350.555,545.848 	"/>
	<path fill-rule="evenodd" clip-rule="evenodd" fill="#4C4C4E" d="M391.387,569.492h2.254l-9.023-25.902h-3.381l-9.023,25.902h2.258
		l2.41-6.803h12.058L391.387,569.492z M382.908,544.911l5.329,15.793h-10.658L382.908,544.911z"/>
	<polygon fill-rule="evenodd" clip-rule="evenodd" fill="#4C4C4E" points="401.959,569.492 401.959,557.711 413.55,557.711 
		413.55,555.647 401.959,555.647 401.959,545.653 414.405,545.653 414.405,543.593 399.664,543.593 399.664,569.492 	"/>
	<path fill-rule="evenodd" clip-rule="evenodd" fill="#4C4C4E" d="M435.788,569.492h2.262l-9.023-25.902h-3.385l-9.021,25.902h2.255
		l2.41-6.803h12.054L435.788,569.492z M427.317,544.911l5.328,15.793h-10.657L427.317,544.911z"/>
	<path fill-rule="evenodd" clip-rule="evenodd" fill="#4C4C4E" d="M460.481,569.492h2.609l-6.927-10.27
		c3.034-0.735,4.202-2.837,4.202-5.673v-3.971c0-3.612-1.903-5.986-7.12-5.986h-9.177v25.899h2.295v-9.956h6.882h0.507
		L460.481,569.492z M458.071,549.579v3.971c0,2.836-1.512,3.926-4.781,3.926h-6.926v-11.822h6.926
		C456.56,545.653,458.071,546.739,458.071,549.579"/>
	<path fill-rule="evenodd" clip-rule="evenodd" fill="#4C4C4E" d="M485.721,569.492h2.604l-6.923-10.27
		c3.03-0.735,4.206-2.837,4.206-5.673v-3.971c0-3.612-1.911-5.986-7.128-5.986h-9.173v25.899h2.299v-9.956h6.874h0.515
		L485.721,569.492z M483.31,549.579v3.971c0,2.836-1.516,3.926-4.784,3.926h-6.919v-11.822h6.919
		C481.794,545.653,483.31,546.739,483.31,549.579"/>
	<path fill-rule="evenodd" clip-rule="evenodd" fill="#4C4C4E" d="M511.537,562.178V550.9c0-4.434-2.411-7.699-9.061-7.699
		c-6.646,0-9.062,3.266-9.062,7.699v11.277c0,4.438,2.415,7.702,9.062,7.702C509.126,569.88,511.537,566.615,511.537,562.178
		 M502.477,567.82c-4.971,0-6.767-2.022-6.767-5.717v-11.125c0-3.69,1.796-5.717,6.767-5.717c4.981,0,6.77,2.026,6.77,5.717v11.125
		C509.246,565.798,507.458,567.82,502.477,567.82"/>
	<path fill-rule="evenodd" clip-rule="evenodd" fill="#4C4C4E" d="M535.769,569.492h2.257l-9.023-25.902h-3.381l-9.027,25.902h2.258
		l2.407-6.803h12.058L535.769,569.492z M527.293,544.911l5.329,15.793h-10.658L527.293,544.911z"/>
	<polygon fill-rule="evenodd" clip-rule="evenodd" fill="#D43327" points="129.341,491.661 127.048,491.661 127.048,517.563 
		141.01,517.563 141.01,515.504 129.341,515.504 	"/>
	<path fill-rule="evenodd" clip-rule="evenodd" fill="#D43327" d="M164.537,517.563h2.255l-9.025-25.902h-3.384l-9.021,25.902h2.254
		l2.411-6.807h12.058L164.537,517.563z M156.057,492.982l5.327,15.793h-10.654L156.057,492.982z"/>
	<polygon fill-rule="evenodd" clip-rule="evenodd" fill="#D43327" points="197.001,517.563 200.345,517.563 200.345,491.661 
		198.167,491.661 198.167,515.347 185.876,491.661 182.528,491.661 182.528,517.563 184.712,517.563 184.712,493.915 	"/>
	<path fill-rule="evenodd" clip-rule="evenodd" fill="#D43327" d="M225.544,517.563h2.256l-9.021-25.902h-3.387l-9.021,25.902h2.254
		l2.41-6.807h12.062L225.544,517.563z M217.065,492.982l5.331,15.793h-10.658L217.065,492.982z"/>
	<polygon fill-rule="evenodd" clip-rule="evenodd" fill="#D43327" points="239.266,515.504 230.824,491.661 228.57,491.661 
		237.71,517.563 240.822,517.563 249.961,491.661 247.703,491.661 	"/>
	<path fill-rule="evenodd" clip-rule="evenodd" fill="#D43327" d="M269.912,517.563h2.254l-9.022-25.902h-3.386l-9.022,25.902h2.258
		l2.407-6.807h12.062L269.912,517.563z M261.431,492.982l5.331,15.793h-10.661L261.431,492.982z"/>
	<path fill-rule="evenodd" clip-rule="evenodd" fill="#D43327" d="M294.598,517.56h2.606l-6.92-10.262
		c3.03-0.739,4.2-2.84,4.2-5.681v-3.963c0-3.62-1.907-5.993-7.121-5.993h-9.175v25.898h2.294v-9.952h6.881h0.51L294.598,517.56z
		 M292.188,497.654v3.963c0,2.841-1.514,3.927-4.784,3.927h-6.921v-11.819h6.921C290.674,493.725,292.188,494.814,292.188,497.654"
		/>
	<path fill-rule="evenodd" clip-rule="evenodd" fill="#D43327" d="M319.834,517.56h2.607l-6.925-10.262
		c3.034-0.739,4.204-2.84,4.204-5.681v-3.963c0-3.62-1.907-5.993-7.12-5.993h-9.175v25.898h2.293v-9.952h6.882h0.505L319.834,517.56
		z M317.424,497.654v3.963c0,2.841-1.514,3.927-4.784,3.927h-6.921v-11.819h6.921C315.91,493.725,317.424,494.814,317.424,497.654"
		/>
	<path fill-rule="evenodd" clip-rule="evenodd" fill="#D43327" d="M345.771,517.563h2.26l-9.023-25.902h-3.385l-9.021,25.902h2.258
		l2.406-6.807h12.058L345.771,517.563z M337.296,492.982l5.327,15.793h-10.658L337.296,492.982z"/>
	<path fill-rule="evenodd" clip-rule="evenodd" fill="#D43327" d="M363.768,491.661v25.902h8.561c6.304,0,8.087-3.266,8.087-7.661
		v-10.576c0-4.399-1.783-7.665-8.087-7.665H363.768z M366.064,493.721h6.301c4.355,0,5.759,1.792,5.759,5.486v10.811
		c0,3.694-1.403,5.49-5.759,5.49h-6.301V493.721z"/>
	<polygon fill-rule="evenodd" clip-rule="evenodd" fill="#D43327" points="387.879,517.563 402.5,517.563 402.5,515.504 
		390.174,515.504 390.174,505.387 401.604,505.387 401.604,503.327 390.174,503.327 390.174,493.721 402.459,493.721 
		402.459,491.661 387.879,491.661 	"/>
	<polygon fill-rule="evenodd" clip-rule="evenodd" fill="#D43327" points="425.052,517.563 427.347,517.563 427.347,493.721 
		435.318,493.721 435.318,491.661 417.08,491.661 417.08,493.721 425.052,493.721 	"/>
	<path fill-rule="evenodd" clip-rule="evenodd" fill="#D43327" d="M457.635,510.253v-11.277c0-4.434-2.415-7.703-9.062-7.703
		c-6.657,0-9.068,3.27-9.068,7.703v11.277c0,4.434,2.411,7.699,9.068,7.699C455.22,517.952,457.635,514.687,457.635,510.253
		 M448.573,515.892c-4.981,0-6.77-2.019-6.77-5.717V499.05c0-3.694,1.788-5.717,6.77-5.717c4.971,0,6.766,2.022,6.766,5.717v11.125
		C455.339,513.873,453.544,515.892,448.573,515.892"/>
	<path fill-rule="evenodd" clip-rule="evenodd" fill="#D43327" d="M465.214,491.661v25.902h8.561c6.296,0,8.087-3.266,8.087-7.661
		v-10.576c0-4.399-1.791-7.665-8.087-7.665H465.214z M467.509,493.721h6.3c4.358,0,5.754,1.792,5.754,5.486v10.811
		c0,3.694-1.396,5.49-5.754,5.49h-6.3V493.721z"/>
	<path fill-rule="evenodd" clip-rule="evenodd" fill="#D43327" d="M506.865,510.253v-11.277c0-4.434-2.411-7.703-9.062-7.703
		s-9.061,3.27-9.061,7.703v11.277c0,4.434,2.41,7.699,9.061,7.699S506.865,514.687,506.865,510.253 M497.804,515.892
		c-4.981,0-6.77-2.019-6.77-5.717V499.05c0-3.694,1.788-5.717,6.77-5.717c4.979,0,6.766,2.022,6.766,5.717v11.125
		C504.569,513.873,502.782,515.892,497.804,515.892"/>
	<path fill-rule="evenodd" clip-rule="evenodd" fill="#D43327" d="M529.188,511.148c0-4.899-0.388-5.874-7.194-7.587
		c-5.449-1.361-5.561-1.556-5.561-5.754c0-3.229,0.697-4.471,5.829-4.471c2.026,0,4.44,0.351,6.344,0.772l0.269-1.94
		c-1.75-0.508-4.433-0.896-6.688-0.896c-6.497,0-8.053,2.217-8.053,6.457c0,5.209,0.705,6.336,6.96,7.776
		c5.758,1.329,5.795,1.751,5.795,5.759c0,3.307-1.201,4.631-5.635,4.631c-2.258,0-4.631-0.354-6.964-1.056l-0.425,1.869
		c2.217,0.854,5.053,1.243,7.307,1.243C527.752,517.952,529.188,515.384,529.188,511.148"/>
	<polygon fill-rule="evenodd" clip-rule="evenodd" fill="#D43327" points="547.079,491.272 544.78,491.272 535.22,522.116 
		537.466,522.116 	"/>
	<path fill-rule="evenodd" clip-rule="evenodd" fill="#D43327" d="M569.172,517.563h2.254l-9.02-25.902h-3.393l-9.02,25.902h2.258
		l2.406-6.807h12.062L569.172,517.563z M560.689,492.982l5.333,15.793h-10.658L560.689,492.982z"/>
	<path fill-rule="evenodd" clip-rule="evenodd" fill="#D43327" d="M592.189,511.148c0-4.899-0.396-5.874-7.194-7.587
		c-5.452-1.361-5.568-1.556-5.568-5.754c0-3.229,0.701-4.471,5.837-4.471c2.022,0,4.434,0.351,6.34,0.772l0.272-1.94
		c-1.754-0.508-4.434-0.896-6.694-0.896c-6.49,0-8.046,2.217-8.046,6.457c0,5.209,0.701,6.336,6.963,7.776
		c5.755,1.329,5.792,1.751,5.792,5.759c0,3.307-1.201,4.631-5.635,4.631c-2.262,0-4.635-0.354-6.964-1.056l-0.433,1.869
		c2.221,0.854,5.057,1.243,7.314,1.243C590.749,517.952,592.189,515.384,592.189,511.148"/>
	<path fill-rule="evenodd" clip-rule="evenodd" fill="#4C4C4E" d="M42.366,383.968c0-12.715,4.784-17.342,22.79-17.342
		c7.763,0,17.339,0.988,25.433,2.642l1.153-8.255c-7.592-1.981-18.495-2.975-26.586-2.975c-24.113,0-32.369,8.424-32.369,25.433
		v38.479c0,16.682,7.592,25.269,31.213,25.269c9.247,0,20.643-1.153,29.558-3.796v-36.501h-9.575v29.893
		c-5.615,1.32-13.872,1.817-19.818,1.817c-17.502,0-21.798-4.628-21.798-17.01V383.968z"/>
	<polygon fill-rule="evenodd" clip-rule="evenodd" fill="#4C4C4E" points="123.282,445.565 178.28,445.565 178.28,436.975 
		132.861,436.975 132.861,404.776 174.974,404.776 174.974,396.193 132.861,396.193 132.861,368.275 178.112,368.275 
		178.112,359.688 123.282,359.688 	"/>
	<path fill-rule="evenodd" clip-rule="evenodd" fill="#4C4C4E" d="M265.637,445.565h11.231l-22.459-32.206
		c10.239-2.807,14.206-9.74,14.206-18.987v-14.368c0-12.218-6.771-20.315-26.097-20.315h-36.166v85.877h9.576v-30.877h26.59h1.654
		L265.637,445.565z M242.519,406.098h-26.59v-37.819h26.59c12.224,0,16.515,3.468,16.515,12.223v13.375
		C259.033,402.63,254.742,406.098,242.519,406.098"/>
	<path fill-rule="evenodd" clip-rule="evenodd" fill="#4C4C4E" d="M330.866,447.219c25.102,0,34.021-11.065,34.021-25.761v-37.654
		c0-14.696-8.919-25.766-34.021-25.766c-25.099,0-34.018,11.069-34.018,25.766v37.654
		C296.849,436.153,305.768,447.219,330.866,447.219 M355.312,384.296v36.662c0,11.564-6.607,17.67-24.445,17.67
		c-17.835,0-24.438-6.105-24.438-17.67v-36.662c0-11.554,6.604-17.67,24.438-17.67C348.704,366.626,355.312,372.742,355.312,384.296
		"/>
	<path fill-rule="evenodd" clip-rule="evenodd" fill="#4C4C4E" d="M453.896,445.565h9.74l-33.027-85.877h-13.215l-33.03,85.877
		h9.748l8.747-22.13h41.949L453.896,445.565z M424.003,366.129l18.003,49.38h-36.169L424.003,366.129z"/>
	<path fill-rule="evenodd" clip-rule="evenodd" fill="#4C4C4E" d="M530.831,445.569c18.166,0,25.104-8.095,25.104-20.477v-7.935
		c0-8.419-4.955-14.195-13.378-16.181c7.27-3.139,10.075-7.435,10.075-14.036v-8.094c0-12.058-6.276-19.159-23.782-19.159h-42.936
		v85.881H530.831z M536.115,422.61c0,4.296-1.813,7.109-7.923,7.109h-21.802v-19.659h21.966c5.448,0,7.759,1.985,7.759,6.777V422.61
		z M532.816,388.095c0,3.635-1.821,6.605-7.599,6.605h-18.827v-19.155h19.82c4.456,0,6.605,1.817,6.605,5.444V388.095z"/>
	<path fill-rule="evenodd" clip-rule="evenodd" fill="#4C4C4E" d="M627.598,359.688h-25.429l-30.061,85.877h20.477l4.96-15.356
		h34.673l4.955,15.356h20.48L627.598,359.688z M627.434,414.188h-25.101l12.547-38.972L627.434,414.188z"/>
	<rect x="676.626" y="359.691" fill-rule="evenodd" clip-rule="evenodd" fill="#4C4C4E" width="20.477" height="85.878"/>
	<path fill="#A2958A" d="M413.695,217.165c-17.203,4.139-24.22,14.834-25.48,18.764c-0.389,3.818,9.419,38.849,10.001,43.903
		c1.034,8.984,57.493,14.676,57.643,17.781c0.216,4.47-42.729-3.508-82.616-3.45c-39.542,0.054-80.427,8.291-80.598,3.45
		c-0.146-4.143,58.291-5.109,59.637-21.107c5.069-28.036,6.315-37.524,5.12-43.019c-0.956-4.043-24.836-10.925-25.951-12.067
		c0,0,20.303-11.591,20.379-11.863c0.895-3.159,17.562-15.258,23.73-13.372C393.626,201.719,413.658,217.081,413.695,217.165"/>
	<path fill="#E68271" d="M288.67,180.179c-2.432,0.063-4.827-0.422-7.009-1.388c0.352,0.584,0.672,1.196,0.956,1.838
		c2.304-0.036,4.478,0.168,6.454,0.894C288.91,181.08,288.772,180.632,288.67,180.179 M320.254,181.095
		c-0.83-0.172-1.647-0.382-2.457-0.631l-1.403,0.394c1.192,0.119,2.362,0.423,3.46,0.894L320.254,181.095z M363.214,141.704
		c-0.702-0.179-1.398-0.397-2.075-0.657c0.386,0.543,0.758,1.097,1.108,1.678L363.214,141.704z M365.148,62.715
		c-0.762,0.584-1.606,1.09-2.52,1.499c-0.841,0.371-1.695,0.646-2.56,0.821c0.733,0.853,1.356,1.819,1.834,2.902
		c0.6,1.343,0.924,2.747,1,4.135c1.286,0.802,2.352,1.978,3.008,3.469l0.211,0.509c1.062-1.931,2.514-3.59,4.546-4.491
		c0.351-0.153,0.705-0.286,1.067-0.386c-2.172-0.608-4.055-2.144-5.044-4.364c-0.504-1.135-0.719-2.323-0.672-3.484
		C365.722,63.132,365.427,62.93,365.148,62.715 M456.552,180.789c-1.72,0.565-3.467,0.929-5.213,1.101l0.354,0.737
		c0.713,1.605,1.135,3.268,1.284,4.926c0.783-0.638,1.668-1.185,2.638-1.616c2.915-1.299,6.072-1.316,8.841-0.292
		c-0.437-1.2-0.672-2.429-0.717-3.653C461.284,181.959,458.858,181.545,456.552,180.789 M487.981,168.377
		c0.352-0.157,0.709-0.285,1.067-0.39c-0.873-0.249-1.701-0.642-2.448-1.176c-0.828,2.047-1.933,3.982-3.287,5.743l0.392,0.595
		C484.362,171.094,485.854,169.321,487.981,168.377 M477.458,132.674c-2.358-0.255-4.598-1.257-6.363-2.875
		c-0.316,0.287-0.648,0.56-0.996,0.812c0.389,0.688,0.746,1.394,1.067,2.125c0.299,0.664,0.556,1.328,0.784,1.996
		c2.074,0.717,4.057,1.706,5.873,2.948C477.331,136.022,477.227,134.312,477.458,132.674 M387.953,66.429
		c-2.172-0.278-4.254-1.131-5.993-2.467c-0.485,3.008-2.18,5.605-4.918,6.824c-0.352,0.157-0.713,0.287-1.067,0.386
		c2.164,0.612,4.06,2.147,5.038,4.368c0.164,0.353,0.291,0.711,0.392,1.073c0.485-1.733,1.563-3.297,3.116-4.355
		C385.24,70.114,386.401,68.123,387.953,66.429 M438.318,103.758c-0.519,1.84-1.702,3.48-3.396,4.542
		c-1.46,0.024-2.941,0.334-4.359,0.969c-2.246,0.048-3.963-0.726-5.276-2.006c0.228,0.416,0.44,0.843,0.634,1.28
		c0.479,1.069,0.829,2.159,1.061,3.258c0.881-0.935,1.94-1.729,3.153-2.334c1.847-0.833,3.328-1.142,4.788-1.167
		c1.896-0.03,3.754,0.426,5.407,1.301l-0.325-0.681c-0.481-1.077-0.779-2.192-0.902-3.305c-0.149-0.248-0.284-0.509-0.396-0.776
		C438.546,104.482,438.415,104.124,438.318,103.758 M419.077,74.413c-1.112-0.088-2.202-0.329-3.247-0.707
		c0.202,0.86,0.336,1.728,0.396,2.586c0.664,0.05,1.317,0.138,1.963,0.265C418.42,75.814,418.715,75.102,419.077,74.413
		 M467.576,104.882c-2.057,0.89-4.288,0.832-6.202,0.019c-0.075,1.642-0.52,3.249-1.28,4.692l0.676-0.324
		c2.254-1.006,4.657-1.2,6.896-0.715C467.427,107.322,467.404,106.085,467.576,104.882 M281.37,102.236
		c0.131-0.446,0.295-0.883,0.495-1.299c-0.387-0.073-0.766-0.171-1.137-0.298l0.256,0.524
		C281.141,101.514,281.271,101.874,281.37,102.236 M291.043,96.798c0.791,0.222,1.543,0.565,2.232,1.024
		c1.57-2.84,4.043-5.208,7.237-6.629c1.161-0.517,2.354-0.875,3.549-1.094c-0.767-0.394-1.496-0.875-2.166-1.437
		c-0.817,0.683-1.75,1.269-2.771,1.724c-0.852,0.377-1.73,0.649-2.609,0.817c-0.578,2.235-2.133,4.194-4.403,5.204
		C291.762,96.565,291.401,96.696,291.043,96.798 M297.126,213.385c0.269-0.3,0.555-0.591,0.86-0.862
		c-0.492-0.44-0.955-0.937-1.36-1.48c-0.24,0.387-0.5,0.765-0.78,1.131C296.306,212.538,296.736,212.943,297.126,213.385
		 M259.076,140.519c-2.786,0.573-5.612,0.39-8.223-0.449c-0.288,2.698-1.961,5.165-4.613,6.346
		c-0.351,0.157-0.711,0.288-1.065,0.386c1.743,0.493,3.305,1.586,4.368,3.15c0.596-0.364,1.215-0.685,1.868-0.978
		c0.569-0.257,1.149-0.474,1.739-0.659c0.539-0.446,1.146-0.828,1.819-1.127c0.656-0.295,1.328-0.485,2.013-0.588
		C257.271,144.452,257.984,142.385,259.076,140.519 M275.723,95.328c-0.125,0.446-0.293,0.882-0.497,1.306
		c0.391,0.069,0.77,0.168,1.139,0.298l-0.256-0.524C275.952,96.054,275.823,95.69,275.723,95.328 M443.461,92.507
		c-2.075-0.284-4.057-1.09-5.739-2.342c-0.791,1.521-2.083,2.797-3.77,3.545c-0.351,0.157-0.709,0.287-1.071,0.386
		c2.172,0.616,4.057,2.147,5.046,4.368c0.156,0.353,0.287,0.714,0.392,1.073c0.549-1.963,1.858-3.702,3.751-4.749
		C442.397,93.958,442.867,93.184,443.461,92.507 M452.671,90.046c1.393,1.062,2.971,2.491,3.844,4.452
		c0.135,0.295,0.239,0.588,0.328,0.886c0.418-1.011,0.971-2.021,1.725-2.877C456.425,92.212,454.388,91.369,452.671,90.046
		 M417.786,218.796c0.179,0.407,0.306,0.765,0.406,1.129c0.086-0.31,0.19-0.616,0.317-0.914L417.786,218.796z M407.456,214.868
		c0.358-0.142,0.705-0.285,1.063-0.386c-1.492-0.419-2.854-1.284-3.885-2.506c-3.68,0.379-7.352,0.118-10.867-0.729
		c-5.057,1.226-10.226,1.172-15.099,0c-4.885,1.179-9.867,1.172-14.592,0.122c-1.547,3.685-4.452,6.811-8.391,8.568
		c-4.729,2.101-9.921,1.773-14.174-0.452l-0.933,0.452c-3.512,1.562-7.283,1.78-10.738,0.875c-0.264,3.592-2.446,6.92-5.962,8.482
		c-4.114,1.834-8.808,0.681-11.647-2.53c-0.929,1.052-2.09,1.924-3.45,2.53c-4.119,1.834-8.812,0.681-11.652-2.53
		c-0.924,1.052-2.09,1.924-3.454,2.53c-5.082,2.263-11.048-0.026-13.306-5.117c-0.849-1.903-1.06-3.924-0.726-5.827
		c-1.521-0.306-2.993-0.827-4.364-1.54l-0.926,0.446c-4.727,2.103-9.923,1.774-14.178-0.446l-0.929,0.446
		c-8.224,3.657-17.856-0.047-21.514-8.277c-2.477-5.561-1.59-11.767,1.789-16.333c-1.854-0.405-3.592-1.25-5.061-2.476
		c-0.817,0.685-1.746,1.269-2.771,1.722c-5.934,2.646-12.887-0.03-15.53-5.963c-2.641-5.939,0.031-12.894,5.965-15.539
		c2.917-1.295,6.072-1.31,8.843-0.29c-1.058-2.874-0.94-5.924,0.164-8.58c-3.95,1.758-8.587-0.022-10.348-3.982
		c-1.758-3.956,0.023-8.59,3.978-10.352c3.956-1.761,8.587,0.019,10.349,3.979c0.156,0.356,0.291,0.714,0.39,1.076
		c0.608-2.17,2.141-4.063,4.364-5.055c0.348-0.157,0.708-0.282,1.065-0.386c-2.166-0.612-4.054-2.147-5.039-4.364
		c-0.372-0.825-0.584-1.688-0.653-2.54c-4.055-1.45-7.533-4.487-9.419-8.732c-3.657-8.229,0.041-17.866,8.264-21.531
		c1.782-0.792,3.631-1.233,5.469-1.368c0.333-4.602,2.614-8.942,6.374-11.804c-1.779-4.012-0.003-8.648,3.952-10.406
		c3.954-1.761,8.591,0.015,10.349,3.975c0.16,0.356,0.289,0.714,0.39,1.077c0.606-2.17,2.141-4.068,4.363-5.051
		c0.353-0.16,0.711-0.289,1.067-0.39c-2.163-0.608-4.052-2.144-5.04-4.363c-1.764-3.956,0.019-8.594,3.973-10.352
		c2.099-0.933,4.385-0.873,6.333-0.021c0.908-0.825,1.961-1.521,3.144-2.047c2.913-1.301,6.073-1.312,8.845-0.291
		c-2.125-5.771,0.562-12.278,6.254-14.812c2.909-1.291,6.054-1.312,8.824-0.302c1.487-1.666,3.348-3.052,5.521-4.019
		c1.782-0.795,3.631-1.243,5.469-1.373c0.42-5.809,3.944-11.196,9.634-13.729c7.605-3.387,16.413-0.47,20.591,6.488
		c2.021-0.489,4.081-0.442,6.014,0.062c-1.506-5.762,1.334-11.935,6.952-14.433c6.251-2.782,13.569,0.03,16.346,6.283
		c1.187,2.667,1.358,5.529,0.672,8.146c2.638-0.692,5.358-0.466,7.776,0.511c-1.097-5.54,1.739-11.304,7.121-13.696
		c6.247-2.78,13.562,0.036,16.346,6.283c1.187,2.668,1.357,5.53,0.671,8.148c2.378-0.62,4.822-0.502,7.054,0.244
		c1.149-2.905,3.389-5.381,6.475-6.752c6.251-2.778,13.565,0.034,16.35,6.282c1.183,2.667,1.351,5.525,0.672,8.147
		c4.074-1.062,8.352,0.046,11.396,2.782c5.321-0.733,10.695,2.083,12.99,7.238c1.184,2.666,1.355,5.525,0.676,8.146
		c5.762-1.506,11.927,1.338,14.431,6.96c1.135,2.556,1.34,5.288,0.751,7.826c-0.135,2.349-1.329,4.573-3.311,5.973
		c-0.512,0.504-1.063,0.97-1.661,1.392c1.852,0.72,3.43,2.149,4.307,4.11c0.157,0.356,0.284,0.715,0.385,1.079
		c0.608-2.17,2.146-4.066,4.362-5.057c3.956-1.758,8.591,0.021,10.353,3.978c0.694,1.567,0.836,3.245,0.507,4.801
		c0.643,0.774,1.194,1.646,1.62,2.612c1.452,3.252,1.217,6.833-0.321,9.757l0.676-0.325c5.639-2.512,12.24,0.03,14.752,5.67
		c2.194,4.93,0.533,10.601-3.688,13.623c0.87,2.603,0.776,5.335-0.119,7.766c5.77-2.125,12.274,0.565,14.801,6.262
		c2.646,5.943-0.022,12.894-5.96,15.534c-3.317,1.483-6.96,1.297-9.99-0.198c0.18,3.157-1.582,6.243-4.643,7.605
		c-0.351,0.157-0.709,0.282-1.067,0.381c2.169,0.615,4.053,2.147,5.046,4.368c0.153,0.353,0.283,0.715,0.388,1.079
		c0.604-2.176,2.139-4.069,4.359-5.057c3.959-1.761,8.591,0.021,10.352,3.978c1.762,3.959-0.019,8.591-3.975,10.352
		c-3.959,1.758-8.59-0.019-10.348-3.981c-0.16-0.351-0.291-0.711-0.389-1.073c-0.607,2.174-2.146,4.066-4.366,5.055
		c-2.388,1.062-5.016,0.838-7.112-0.378c-0.075,1.14-0.313,2.256-0.705,3.314c5.766-2.129,12.273,0.565,14.808,6.264
		c2.642,5.938-0.026,12.894-5.96,15.538c-4.243,1.881-8.994,1.058-12.33-1.728c-0.824,0.685-1.754,1.269-2.776,1.728
		c-4.188,1.856-8.878,1.083-12.207-1.627c-0.187,1.601-0.653,3.133-1.31,4.592c0.865,0.733,1.586,1.674,2.078,2.786
		c0.157,0.351,0.288,0.711,0.393,1.075c0.604-2.176,2.138-4.068,4.362-5.057c3.952-1.758,8.587,0.019,10.349,3.981
		c1.758,3.956-0.02,8.591-3.975,10.349c-3.96,1.762-8.591-0.019-10.353-3.978c-0.156-0.351-0.287-0.715-0.384-1.079
		c-0.612,2.176-2.15,4.071-4.367,5.057c-3.955,1.762-8.59-0.019-10.352-3.978l-0.739-0.084c-0.754,1.75-2.134,3.23-4.015,4.062
		c-3.956,1.762-8.584-0.019-10.349-3.978c-2.266,0.108-4.468-0.114-6.531-0.769c1.788,4.01,0.004,8.645-3.952,10.403
		c-3.955,1.761-8.583-0.019-10.344-3.978c-0.157-0.354-0.292-0.715-0.393-1.077c-0.608,2.174-2.139,4.066-4.362,5.055
		c-3.956,1.761-8.591-0.019-10.353-3.978c-0.156-0.354-0.283-0.715-0.392-1.077C403.12,224.349,400.649,217.509,407.456,214.868"/>
	<path fill="#D43327" d="M353.117,50.207c-1.188,1.466-2.737,2.683-4.583,3.504c-0.408,0.183-0.825,0.343-1.243,0.478
		c-0.021,0.908-0.109,1.815-0.281,2.698c0.328,0.554,0.627,1.127,0.89,1.724c1.399,3.141,1.725,6.484,1.135,9.621
		c0.803-0.657,1.705-1.218,2.698-1.666c0.86-2.062,2.01-3.767,3.708-4.887c-0.704-0.853-1.309-1.816-1.782-2.87
		C352.41,55.987,352.29,52.945,353.117,50.207 M435.807,171.482c-4.12,0.153-8.184-0.756-11.814-2.579
		c1.086,3.358,1.72,6.346,1.933,9.328c2.646,0.431,5.154,1.543,7.251,3.235c1.026-0.825,2.176-1.536,3.438-2.097
		c1.713-0.759,3.489-1.188,5.258-1.306C439.505,176.305,437.438,174.092,435.807,171.482 M390.2,136.783
		c4.889-0.205,9.725,0.711,14.144,2.61c-0.299-0.515-0.575-1.054-0.821-1.616c-0.396-0.886-0.705-1.797-0.933-2.706
		c-3.68,1.364-7.575,1.31-11.054,0.088C391.118,135.722,390.67,136.265,390.2,136.783 M352.21,131.747
		c0.688,1.075,1.299,2.213,1.831,3.409c0.867,1.948,1.472,3.95,1.83,5.961c0.981-0.565,1.998-1.086,3.059-1.556
		c1.146-0.507,2.299-0.948,3.461-1.313c-2.045-1.801-3.753-4.055-4.956-6.695C355.691,131.85,353.935,131.911,352.21,131.747
		 M335.48,120.432l0.668,0.138l-0.562-0.185L335.48,120.432z M387.983,98.237c1.508,1.597,2.776,3.474,3.721,5.596
		c1.09,0.136,1.996-0.075,2.914-0.204c-0.854-1.065-1.582-2.259-2.16-3.562c-0.399-0.886-0.705-1.791-0.937-2.709
		C390.356,97.795,389.17,98.084,387.983,98.237 M347.434,84.801c-0.226-0.274-0.438-0.562-0.643-0.862
		c-1.192,1.754-2.869,3.209-4.944,4.135l-0.547,0.224c1.127,2.534,1.553,4.922,1.444,7.249c1.002-0.69,2.082-1.299,3.233-1.815
		c0.543-0.239,1.094-0.458,1.648-0.646C346.521,90.342,346.521,87.407,347.434,84.801 M376.026,61.059
		c3.956-1.758,8.591,0.022,10.353,3.978l0.283,0.733c3.225,0.161,6.345,1.282,8.935,3.204c0.851-0.63,1.769-1.185,2.758-1.651
		c-5.251,0.627-10.517-2.187-12.782-7.268c-1.254-2.825-1.369-5.863-0.545-8.602c-1.187,1.467-2.735,2.682-4.575,3.504
		c-1.074,0.478-2.176,0.791-3.276,0.952c-0.694,3.92-3.254,7.439-7.165,9.182c-0.899,0.401-1.823,0.685-2.748,0.86
		c0.589,1.933,0.39,3.958-0.442,5.689l0.442,0.894c1.269,2.858,1.312,5.95,0.355,8.682c0.657,0.804,1.221,1.709,1.661,2.698
		c1.239,2.782,1.306,5.786,0.429,8.466c1.083-0.214,2.169-0.332,3.251-0.364c-0.776-1.006-1.44-2.118-1.975-3.325
		c-2.446-5.499-1.608-11.621,1.669-16.172c-0.229-0.347-0.426-0.715-0.605-1.108C370.287,67.455,372.074,62.82,376.026,61.059
		 M447.163,116.346c-0.493-0.563-0.94-1.187-1.321-1.864c-1.135,2.017-2.907,3.704-5.18,4.715c-2.62,1.163-5.441,1.243-7.964,0.429
		c0.008,1.069-0.09,2.131-0.287,3.176c4.303-0.171,8.46,0.519,12.214,2.159c0.799-0.353,1.604-0.655,2.419-0.909
		C446.141,121.472,446.237,118.751,447.163,116.346 M475.592,118.419c-0.492-0.562-0.937-1.185-1.313-1.862
		c-1.142,2.017-2.91,3.704-5.188,4.715c-0.552,1.95-1.156,3.681-2.135,5.187c0.975,0.588,1.904,1.245,2.788,1.967
		c2.34-1.054,4.288-1.36,6.173-1.211C474.555,124.155,474.562,121.089,475.592,118.419 M311.421,70.168
		c-0.088,0.983-0.299,1.946-0.619,2.862c0.656,0.802,1.222,1.709,1.666,2.698c0.68,1.538,1.006,3.135,1.017,4.706
		c1.452,0.577,2.823,1.368,4.059,2.357c1.024-0.825,2.17-1.536,3.436-2.094c1.349-0.608,2.739-0.994,4.139-1.192
		c-3.001-1.659-5.495-4.273-6.997-7.639c-0.395-0.89-0.708-1.792-0.934-2.709C315.295,69.86,313.343,70.185,311.421,70.168
		 M303.209,109.64c1.944,1.418,3.553,3.351,4.604,5.71c0.685,1.541,1.074,3.135,1.192,4.724c4.12-0.364,8.221,0.293,11.962,1.833
		c1.043-0.427,2.102-0.788,3.163-1.069c-3.866-1.371-7.188-4.264-8.986-8.312c-0.51-1.142-0.868-2.313-1.082-3.495
		C310.495,110.599,306.659,110.718,303.209,109.64 M273.89,137.728c3.271-0.963,6.665-0.853,9.75,0.171
		c-0.604-1.47-0.94-2.983-1.032-4.493c-0.47,0.274-0.959,0.528-1.469,0.752c-1.634,0.731-3.34,1.124-5.032,1.213
		C275.453,136.222,274.717,137.013,273.89,137.728 M309.624,171.059c1.079,0.405,2.096,0.97,3.012,1.677
		c-0.408-0.524-0.803-1.065-1.174-1.629C310.849,171.114,310.232,171.096,309.624,171.059 M300.69,171.314
		c1.379-0.612,2.812-0.94,4.229-1.006c-2.924-0.748-5.706-2.013-8.204-3.735c-0.278,2.513-1.146,4.92-2.51,7.042
		c0.569,0.55,1.084,1.161,1.539,1.834C296.934,173.695,298.611,172.239,300.69,171.314 M289.317,193.364
		c-0.045,0.511-0.117,1.021-0.215,1.521c0.33,0.55,0.627,1.124,0.893,1.724c0.423,0.948,0.744,1.911,0.978,2.885
		c3.715,0.146,7.212,2.349,8.827,5.98c0.209,0.478,0.383,0.955,0.512,1.44c0.31-1.127,0.817-2.206,1.494-3.168
		c-2.166-1.19-3.978-3.079-5.061-5.518c-1.272-2.855-1.313-5.947-0.354-8.678c-0.226-0.274-0.44-0.562-0.642-0.864
		c-1.192,1.754-2.866,3.211-4.944,4.131C290.312,193.039,289.817,193.218,289.317,193.364 M266.458,176.958
		c0.776-0.347,1.567-0.627,2.362-0.845c-1.301-1.342-2.389-2.928-3.19-4.73c-0.401-0.89-0.708-1.797-0.938-2.709
		c-1.834,0.679-3.729,1.007-5.594,1.011c0.137,1.665-0.084,3.318-0.627,4.859c0.565,0.687,1.058,1.448,1.467,2.276
		c1.207,0.508,2.358,1.163,3.416,1.95C264.299,178.063,265.338,177.455,266.458,176.958 M320.577,199.936
		c3.573-1.59,7.691-0.29,9.755,2.883c-0.156-0.952-0.129-1.911,0.058-2.833c-2.709-0.271-5.204-1.944-6.393-4.616
		c-1.758-3.958,0.019-8.595,3.975-10.356c3.954-1.758,8.591,0.024,10.353,3.982c0.687,1.552,0.836,3.211,0.519,4.758
		c2.709,0.267,5.206,1.95,6.389,4.62c1.764,3.954-0.015,8.591-3.969,10.352c-0.762,0.336-1.549,0.547-2.332,0.631
		c0.291,0.412,0.546,0.86,0.761,1.338c1.758,3.954-0.019,8.594-3.975,10.356c-3.959,1.757-8.59-0.026-10.352-3.982
		c-0.317-0.711-0.521-1.444-0.616-2.183c-1.929,0.246-3.87-0.249-5.44-1.329c0.733,1.116,1.444,2.131,1.965,3.297
		c2.261,5.094-0.028,11.056-5.115,13.317c-5.086,2.267-11.046-0.022-13.312-5.116c-1.227-2.771-1.116-5.798,0.064-8.347
		c-0.853-0.849-1.563-1.868-2.082-3.034c-0.211-0.474-0.379-0.952-0.517-1.437c-0.768,2.816-2.751,5.277-5.624,6.559
		c-3.77,1.676-8.021,0.851-10.892-1.759c-0.653,0.409-1.342,0.776-2.063,1.097c-8.224,3.661-17.862-0.043-21.518-8.273
		c-0.397-0.887-0.704-1.792-0.934-2.706c-7.999,2.961-17.024-0.767-20.54-8.671c-1.812-4.073-1.822-8.486-0.375-12.354
		c-0.988-2.659-0.959-5.484-0.072-8.001c-0.229-0.28-0.446-0.562-0.649-0.864c-1.188,1.754-2.866,3.209-4.945,4.135
		c-5.932,2.64-12.886-0.036-15.526-5.973c-2.64-5.936,0.026-12.894,5.966-15.534c5.276-2.351,11.369-0.489,14.506,4.131
		c1.188-1.754,2.866-3.208,4.944-4.131c0.401-0.181,0.807-0.332,1.219-0.463c-0.201-0.317-0.381-0.653-0.537-1.009
		c-0.688-1.543-0.838-3.187-0.528-4.726c-0.026-1.36,0.123-2.702,0.424-4.014c-0.795-0.711-1.456-1.601-1.915-2.641
		c-1.761-3.959,0.021-8.594,3.971-10.352c2.006-0.89,4.178-0.875,6.061-0.13c-1.203-1.295-2.221-2.805-2.979-4.512
		c-0.394-0.892-0.707-1.797-0.934-2.706c-7.993,2.958-17.024-0.772-20.54-8.674c-3.657-8.23,0.043-17.87,8.267-21.527
		c5.564-2.479,11.777-1.582,16.347,1.812c0.948-0.704,1.984-1.313,3.104-1.812c8.054-3.583,17.458-0.11,21.282,7.759
		c3.428,0.119,6.726,1.481,9.248,3.833c1.127-1.054,2.446-1.94,3.936-2.607c-1.051-2.636-0.562-5.532,1.063-7.658
		c-1.258-0.802-2.301-1.968-2.95-3.431c-1.768-3.956,0.015-8.591,3.973-10.349c0.265-0.58,0.058-0.978-0.121-1.388
		c-1.273-2.856-1.316-5.945-0.356-8.68c-0.229-0.276-0.442-0.563-0.643-0.86c-1.192,1.754-2.869,3.209-4.948,4.131
		c-5.934,2.644-12.886-0.032-15.526-5.969c-2.64-5.939,0.028-12.894,5.962-15.54c5.286-2.345,11.373-0.489,14.509,4.135
		c1.189-1.754,2.866-3.206,4.941-4.135l0.868-0.343c-2.028-7.609,1.709-15.774,9.126-19.077c5.571-2.474,11.785-1.577,16.351,1.812
		c0.944-0.704,1.983-1.313,3.104-1.812c2.515-1.12,5.159-1.547,7.727-1.372c1.178-2.804,3.383-5.182,6.38-6.51
		c5.284-2.355,11.337-0.7,14.757,3.649c1.204-1.534,2.79-2.806,4.693-3.649c4.19-1.866,8.864-1.217,12.33,1.306
		c5.418-2.414,11.472-0.761,14.894,3.588c1.205-1.532,2.787-2.801,4.69-3.653c6.247-2.778,13.562,0.039,16.346,6.286l0.239,0.577
		c3.586,0.138,7.001,1.834,9.27,4.711c1.201-1.532,2.784-2.801,4.691-3.648c6.25-2.782,13.572,0.034,16.349,6.283
		c1.288,2.896,1.373,6.014,0.481,8.811c0.601,0.772,1.119,1.632,1.534,2.571c2.78,6.253-0.03,13.571-6.277,16.353
		s-13.565-0.034-16.346-6.282c-1.254-2.823-1.369-5.861-0.548-8.602c-1.191,1.468-2.729,2.683-4.579,3.504
		c-1.795,0.798-3.676,1.13-5.516,1.062c-0.813,0.787-1.754,1.472-2.796,2.022c7.144-1.177,14.458,2.542,17.536,9.474
		c1.37,3.077,1.71,6.353,1.165,9.443c1.033,0.774,1.888,1.817,2.447,3.083c1.022,2.293,0.855,4.819-0.238,6.874
		c-0.291,3.303-1.575,6.452-3.691,9.008c1.922,0.428,3.759,1.2,5.408,2.277c0.802-3.027,2.858-5.686,5.852-7.166
		c0.212-0.416,0.466-0.817,0.746-1.196c-1.254-0.799-2.295-1.961-2.944-3.424c-1.762-3.959,0.015-8.594,3.971-10.355
		c3.485-1.547,7.497-0.354,9.609,2.657c0.194-2.802,1.888-5.4,4.635-6.62c3.956-1.761,8.583,0.019,10.345,3.978
		s-0.015,8.595-3.979,10.356c-3.478,1.549-7.485,0.353-9.602-2.659c-0.108,1.528-0.66,3.004-1.59,4.219
		c1.258,0.802,2.303,1.965,2.952,3.431c0.574,1.284,0.769,2.641,0.646,3.952c1.135-1.938,2.869-3.547,5.079-4.532
		c3.858-1.717,8.177-1.067,11.318,1.329c0.586-0.118,1.172-0.187,1.758-0.209c-0.373-2.172,0.194-4.372,1.496-6.083
		c-1.25-0.799-2.299-1.965-2.951-3.43c-1.762-3.954,0.025-8.594,3.978-10.352c3.956-1.761,8.584,0.019,10.345,3.978
		c1.213,2.713,0.754,5.747-0.925,7.949c1.254,0.802,2.295,1.968,2.947,3.431c0.807,1.815,0.874,3.771,0.321,5.527
		c5.777-2.573,12.386-0.035,14.894,5.609c1.258,2.819,1.25,5.889,0.221,8.561c0.72,0.821,1.328,1.765,1.799,2.819
		c1.388,3.118,1.231,6.542-0.143,9.397c3.885,0.55,7.412,3.026,9.125,6.877c1.269,2.851,1.31,5.943,0.351,8.677
		c0.66,0.802,1.224,1.707,1.668,2.702c2.407,5.415,0.399,11.673-4.471,14.737c0.366,0.474,0.68,0.998,0.933,1.567
		c1.206,2.713,0.751,5.747-0.933,7.953c1.254,0.798,2.299,1.965,2.948,3.428c1.762,3.959-0.019,8.594-3.975,10.355
		c-3.952,1.758-8.591-0.019-10.348-3.982c-1.21-2.713-0.747-5.743,0.929-7.949c-1.254-0.798-2.303-1.963-2.944-3.428
		c-1.202-2.698-0.762-5.709,0.896-7.91c-1.93-1.2-3.534-2.972-4.53-5.208c-1.269-2.855-1.307-5.947-0.351-8.68
		c-0.225-0.274-0.44-0.564-0.643-0.862c-1.19,1.754-2.866,3.206-4.948,4.135l-0.72,0.29c1.004,2.644,1.519,5.37,1.571,8.066
		c1.545,0.787,2.836,2.088,3.59,3.792c1.761,3.959-0.02,8.594-3.971,10.356c-1.374,0.612-2.829,0.795-4.214,0.612
		c-1.563,2.163-3.489,4.084-5.751,5.667c0.292,0.342,0.575,0.704,0.829,1.083c1.194-1.754,2.87-3.208,4.944-4.131
		c5.938-2.644,12.89,0.03,15.536,5.969c1.269,2.855,1.31,5.945,0.351,8.678c0.656,0.803,1.224,1.704,1.664,2.702
		c2.643,5.934-0.029,12.894-5.963,15.534s-12.887-0.03-15.528-5.969c-1.272-2.858-1.313-5.95-0.354-8.682
		c-0.231-0.276-0.444-0.562-0.643-0.86c-1.193,1.754-2.869,3.206-4.948,4.131c-2.485,1.108-5.149,1.28-7.602,0.674l0.485,0.996
		c3.479,7.818-0.033,16.975-7.848,20.453c-7.812,3.472-16.966-0.047-20.443-7.861c-0.508-1.142-0.866-2.315-1.09-3.497
		c-5.362,2.366-11.345,1.433-15.696-1.915c-2.157,1.75-4.567,3.249-7.232,4.426c-13.502,6.01-28.925,2.036-37.986-8.744
		c-11.158-1.17-21.396-8.102-26.287-19.092l-0.652-1.579c-9.298,3.562-19.536,1.315-26.491-5.127
		c0.325,0.504,0.624,1.043,0.875,1.612c1.27,2.855,1.312,5.947,0.352,8.679c0.658,0.802,1.228,1.704,1.666,2.698
		c1.983,4.456,0.972,9.485-2.159,12.832c0.448,0.332,0.868,0.708,1.258,1.116C318.127,201.48,319.229,200.54,320.577,199.936
		 M271.644,86.685c3.959-1.761,8.587,0.019,10.349,3.975c1.761,3.959-0.02,8.594-3.975,10.356
		c-3.954,1.757-8.587-0.022-10.349-3.982C265.907,93.078,267.688,88.443,271.644,86.685 M225.771,136.688
		c3.956-1.761,8.591,0.019,10.353,3.978c1.757,3.96-0.02,8.595-3.979,10.353c-3.952,1.757-8.587-0.019-10.349-3.979
		C220.039,143.081,221.815,138.446,225.771,136.688"/>
	<path fill-rule="evenodd" clip-rule="evenodd" fill="#E68271" d="M350.178,115.864c9.336-4.153,20.277,0.054,24.431,9.4
		c4.153,9.353-0.045,20.296-9.382,24.449c-9.339,4.159-20.28-0.052-24.434-9.4C336.639,130.967,340.839,120.018,350.178,115.864"/>
	<path fill-rule="evenodd" clip-rule="evenodd" fill="#FFFFFF" d="M413.625,122.783c11.386-5.071,24.73,0.065,29.799,11.464
		c5.071,11.402-0.053,24.755-11.446,29.823c-11.393,5.07-24.734-0.062-29.802-11.464
		C397.104,141.204,402.231,127.851,413.625,122.783"/>
	<path fill-rule="evenodd" clip-rule="evenodd" fill="#D43327" d="M453.671,190.996c5.523-2.458,11.987,0.032,14.446,5.557
		c2.452,5.521-0.03,11.996-5.549,14.447c-5.523,2.458-11.987-0.029-14.442-5.551C445.666,199.918,448.151,193.453,453.671,190.996"
		/>
	<path fill-rule="evenodd" clip-rule="evenodd" fill="#FFFFFF" d="M280.993,109.584c3.68-1.635,7.986,0.019,9.627,3.704
		c1.634,3.683-0.02,7.994-3.7,9.634c-3.68,1.634-7.986-0.024-9.621-3.708C275.659,115.534,277.313,111.22,280.993,109.584"/>
	<path fill-rule="evenodd" clip-rule="evenodd" fill="#E68271" d="M236.499,176.505c5.518-2.458,11.982,0.032,14.44,5.561
		c2.457,5.521-0.026,11.992-5.548,14.448c-5.52,2.458-11.988-0.03-14.442-5.555C228.492,185.432,230.978,178.962,236.499,176.505"/>
	<path fill-rule="evenodd" clip-rule="evenodd" fill="#FFFFFF" d="M344.144,185.088c0-18.32,14.851-33.174,33.17-33.174
		c18.32,0,33.169,14.854,33.169,33.174c0,18.316-14.849,33.174-33.169,33.174C358.994,218.263,344.144,203.404,344.144,185.088"/>
	<path fill-rule="evenodd" clip-rule="evenodd" fill="#D43327" d="M350.538,185.088c0-14.79,11.986-26.772,26.772-26.772
		c14.789,0,26.779,11.983,26.779,26.772c0,14.786-11.99,26.774-26.779,26.774C362.524,211.862,350.538,199.874,350.538,185.088"/>
	<path fill-rule="evenodd" clip-rule="evenodd" fill="#FFFFFF" d="M248.082,206.705c0-9.434,7.646-17.084,17.083-17.084
		c9.438,0,17.084,7.65,17.084,17.084c0,9.436-7.646,17.086-17.084,17.086C255.729,223.791,248.082,216.141,248.082,206.705"/>
	<path fill-rule="evenodd" clip-rule="evenodd" fill="#D43327" d="M251.378,206.705c0-7.617,6.17-13.788,13.787-13.788
		c7.62,0,13.791,6.171,13.791,13.788s-6.171,13.791-13.791,13.791C257.548,220.496,251.378,214.322,251.378,206.705"/>
	<path fill-rule="evenodd" clip-rule="evenodd" fill="#FFFFFF" d="M294.167,164.425c0-14.199,11.511-25.714,25.714-25.714
		c14.196,0,25.711,11.515,25.711,25.714c0,14.202-11.515,25.714-25.711,25.714C305.678,190.139,294.167,178.626,294.167,164.425"/>
	<path fill-rule="evenodd" clip-rule="evenodd" fill="#D43327" d="M299.125,164.425c0-11.464,9.294-20.754,20.754-20.754
		c11.461,0,20.753,9.291,20.753,20.754c0,11.461-9.292,20.755-20.753,20.755C308.419,185.18,299.125,175.886,299.125,164.425"/>
	<path fill-rule="evenodd" clip-rule="evenodd" fill="#FFFFFF" d="M370.906,104.999c0-9.436,7.65-17.086,17.085-17.086
		c9.434,0,17.084,7.65,17.084,17.086s-7.65,17.086-17.084,17.086C378.557,122.085,370.906,114.435,370.906,104.999"/>
	<path fill-rule="evenodd" clip-rule="evenodd" fill="#D43327" d="M374.202,104.999c0-7.615,6.176-13.787,13.789-13.787
		c7.62,0,13.789,6.172,13.789,13.787c0,7.617-6.169,13.791-13.789,13.791C380.378,118.79,374.202,112.616,374.202,104.999"/>
	<path fill-rule="evenodd" clip-rule="evenodd" fill="#FFFFFF" d="M363.77,64.205c0-6.797,5.506-12.308,12.31-12.308
		c6.799,0,12.308,5.51,12.308,12.308c0,6.799-5.509,12.31-12.308,12.31C369.275,76.514,363.77,71.004,363.77,64.205"/>
	<path fill-rule="evenodd" clip-rule="evenodd" fill="#D43327" d="M366.145,64.205c0-5.488,4.448-9.936,9.935-9.936
		c5.489,0,9.934,4.448,9.934,9.936s-4.444,9.936-9.934,9.936C370.593,74.141,366.145,69.692,366.145,64.205"/>
</g>
</svg>
