<?xml version="1.0" encoding="utf-8"?>
<!-- Generator: Adobe Illustrator 16.0.0, SVG Export Plug-In . SVG Version: 6.00 Build 0)  -->
<!DOCTYPE svg PUBLIC "-//W3C//DTD SVG 1.1//EN" "http://www.w3.org/Graphics/SVG/1.1/DTD/svg11.dtd">
<svg version="1.1" id="Capa_2" xmlns="http://www.w3.org/2000/svg" xmlns:xlink="http://www.w3.org/1999/xlink" x="0px" y="0px"
	 width="595.281px" height="841.891px" viewBox="0 0 595.281 841.891" enable-background="new 0 0 595.281 841.891"
	 xml:space="preserve">
<g id="Layer_1">
	<g>
		<path fill="#21599E" d="M91.089,253.277c35.47-22.096,77.469-34.084,119.303-32.896c30.688-0.71,61.523,4.716,90.117,15.813
			c31.066,12.037,59.182,32.93,77.139,61.259c1.221,2.672,4.848,4.766,7.273,2.21c23.332-21.074,51.629-37.036,82.447-43.929
			c39.146-9.234,81.313-2.457,116.336,17.051c4.105,2.589,9.449,4.139,11.576,8.938c-1.006,3.133-3.596,5.326-7.008,4.501
			c-47.672-4.946-96.779,3.232-139.768,24.587c-23.813,11.608-45.693,26.977-65.184,44.852c-1.684,1.963-4.123,2.54-6.598,2.408
			c-21.369-31.545-53.592-55.076-89.407-67.625c-28.791-10.355-60.435-12.087-90.265-5.441
			c-41.67,8.756-81.344,32.023-105.089,67.971C68.812,388.576,61.111,432.9,66.717,474.669
			c5.277,39.575,21.255,76.579,29.995,115.362c0.692,4.387,1.715,9.828-1.616,13.423c-3.792,3.101-9.085,1.435-12.994-0.544
			c-8.987-4.914-16.094-12.482-23.597-19.326C23.564,549.368,5.244,501.119,0.841,453.018c-1.566-29.204-1.666-59.034,6.415-87.396
			C19.623,319.319,50.393,278.49,91.089,253.277z"/>
		<path fill="#21599E" d="M190.522,372.234c22.393-9.333,46.831-12.714,70.956-13.34c23.646-0.775,49.205,3.925,67.098,20.513
			c18.188,16.639,25.162,41.885,26.598,65.762c1.73,27.983-3.051,58.094-20.826,80.651c-12.797,16.407-33.063,25.823-53.625,27.076
			c-15.632,0.924-31.396-0.33-46.683-3.727c-0.198,22.426,0.05,44.853-0.132,67.262c0.264,2.177-0.775,5.458-3.545,5.063
			c-14.973,0.082-29.962,0.182-44.918-0.05c-4.601,0.347-4.205-5.145-4.271-8.212c0.033-76.479-0.066-152.959,0.05-229.438
			C180.629,378.006,185.675,374.097,190.522,372.234L190.522,372.234z M233.924,408.561c0.099,31.66,0.017,63.321,0.049,94.965
			c10.092,2.474,20.48,4.105,30.902,3.611c10.817-0.28,21.799-5.508,27.422-15.022c8.427-13.868,8.806-30.869,7.964-46.616
			c-0.955-13.241-4.864-28.412-17.28-35.421C267.893,402.097,249.82,404.62,233.924,408.561L233.924,408.561z"/>
		<path fill="#21599E" d="M385.531,372.811c18.057-7.932,37.744-11.56,57.318-13.143c25.377-2.176,53.098-1.088,74.748,13.967
			c19.16,13.044,29.27,35.733,32.387,58.11c4.154,29.171,1.648,60.798-13.984,86.439c-10.455,17.314-28.445,29.698-48.365,33.26
			c-19.012,3.397-38.617,1.533-57.449-2.193c0,21.866,0,43.731,0,65.597c0.033,2.44-0.066,6.959-3.596,6.646
			c-14.939,0.099-29.895,0.132-44.834,0c-3.877,0.445-4.469-3.81-4.32-6.646c-0.033-76.991-0.033-153.998,0-230.989
			c-0.529-5.227,3.578-9.233,8.096-11.031V372.811z M430.136,408.643c0.115,31.628,0.064,63.239,0.016,94.866
			c10.092,2.507,20.48,4.09,30.902,3.645c10.834-0.297,21.865-5.508,27.504-15.039c8.559-14.065,8.871-31.347,7.916-47.293
			c-0.99-13.356-5.344-28.725-18.221-35.255C463.312,402.262,445.669,404.603,430.136,408.643L430.136,408.643z"/>
	</g>
</g>
</svg>
