<?xml version="1.0" encoding="utf-8"?>
<!-- Generator: Adobe Illustrator 16.0.0, SVG Export Plug-In . SVG Version: 6.00 Build 0)  -->
<!DOCTYPE svg PUBLIC "-//W3C//DTD SVG 1.1//EN" "http://www.w3.org/Graphics/SVG/1.1/DTD/svg11.dtd">
<svg version="1.1" id="Capa_1" xmlns="http://www.w3.org/2000/svg" xmlns:xlink="http://www.w3.org/1999/xlink" x="0px" y="0px"
	 width="595.281px" height="841.891px" viewBox="0 0 595.281 841.891" enable-background="new 0 0 595.281 841.891"
	 xml:space="preserve">
<g id="Capa_1-2">
	<g>
		<g>
			<path fill="#FF8C00" d="M255.329,388.037h-24.655c0,4.806,3.343,7.939,8.148,7.939c4.806,0,6.06-1.672,7.731-5.015l8.358,3.761
				c-2.925,5.851-8.984,9.402-16.297,9.402c-11.701,0-18.805-6.686-18.805-18.178s6.895-19.014,17.969-19.014
				c11.074,0,17.342,6.478,17.342,17.76v3.344l0,0H255.329z M244.255,381.35c0-5.015-2.298-7.731-6.686-7.731
				s-6.895,2.926-7.104,7.94h13.581L244.255,381.35z"/>
			<path fill="#FF8C00" d="M256.583,395.558l6.687-5.015c2.507,3.761,6.268,5.851,11.283,5.851s5.642-1.045,5.642-3.134
				c0-2.09-1.045-2.926-5.015-3.553l-5.015-0.627c-7.731-1.044-11.283-4.806-11.283-10.864c0-6.06,5.851-11.283,15.671-11.283
				s13.164,2.716,16.089,7.104l-5.851,5.433c-2.716-2.925-6.268-4.806-10.656-4.806c-4.388,0-5.015,0.836-5.015,2.926
				c0,2.089,1.045,2.716,4.179,3.134l6.268,1.045c7.522,1.045,10.656,4.806,10.656,10.865c0,6.059-5.851,11.7-15.671,11.7
				s-14.208-2.925-17.551-8.566l0,0L256.583,395.558z"/>
			<path fill="#FF8C00" d="M316.55,397.648c-2.09,3.97-5.852,6.477-10.656,6.477c-8.358,0-14.209-7.313-14.209-18.387
				s6.06-18.805,15.045-18.805c8.984,0,8.566,2.089,10.447,6.06l0.834-5.224h9.82v49.311H316.55V397.648L316.55,397.648
				L316.55,397.648z M316.55,387.201v-3.344c0-5.641-2.508-9.193-6.688-9.193c-4.178,0-6.686,3.762-6.686,10.656
				c0,6.896,2.508,10.865,6.686,10.865c4.18,0,6.479-3.552,6.479-9.193l0,0L316.55,387.201z"/>
			<path fill="#FF8C00" d="M333.892,390.753v-22.983h11.283v21.103c0,4.389,1.881,6.687,5.014,6.687
				c3.135,0,6.061-2.925,6.061-7.313v-20.477h11.49v35.521h-10.863v-6.478c-1.672,4.388-5.852,7.313-11.074,7.313
				C337.445,404.125,333.892,399.11,333.892,390.753L333.892,390.753L333.892,390.753z"/>
			<path fill="#FF8C00" d="M407.232,388.037h-24.656c0,4.806,3.344,7.939,8.148,7.939c4.807,0,6.061-1.672,7.73-5.015l8.359,3.761
				c-2.926,5.851-8.986,9.402-16.299,9.402c-11.701,0-18.805-6.686-18.805-18.178s6.895-19.014,17.969-19.014
				s17.344,6.478,17.344,17.76v3.344l0,0H407.232z M396.158,381.35c0-5.015-2.299-7.731-6.688-7.731
				c-4.387,0-6.895,2.926-7.104,7.94h13.582L396.158,381.35z"/>
			<path fill="#FF8C00" d="M434.394,366.933h0.627v10.865c-0.627,0-1.254,0-2.09,0c-3.135,0-5.432,0.835-6.895,2.089
				c-2.299,2.09-2.926,5.433-2.926,8.984v14.418h-11.492v-35.521h10.656v9.193c1.881-6.478,5.85-10.029,11.91-10.029H434.394z"/>
			<path fill="#FF8C00" d="M460.093,366.933h0.627v10.865c-0.627,0-1.254,0-2.09,0c-3.133,0-5.432,0.835-6.895,2.089
				c-2.299,2.09-2.926,5.433-2.926,8.984v14.418h-11.49v-35.521h10.654v9.193c1.881-6.478,5.852-10.029,11.91-10.029H460.093z"/>
			<path fill="#FF8C00" d="M461.556,393.677c0-3.343,1.254-6.059,3.553-7.73s5.85-2.716,11.074-3.552l8.566-1.254v-1.254
				c0-3.97-1.672-5.851-5.225-5.851c-3.551,0-5.432,1.881-5.641,5.224h-11.283c0.627-7.939,6.895-12.536,17.133-12.536
				s16.508,4.388,16.508,14.626v11.701c0,4.179,0.418,7.73,1.045,9.82h-11.074c-0.418-1.672-0.418-3.553-0.627-5.642
				c-1.881,3.97-6.27,6.477-11.91,6.477c-5.643,0-12.119-4.179-12.119-10.446l0,0V393.677z M485.167,389.708v-2.925l-6.061,1.045
				c-4.178,0.835-6.059,2.298-6.059,4.806c0,2.507,2.09,4.179,5.014,4.179c4.389,0,7.314-2.926,7.314-7.104l0,0H485.167z"/>
			<path fill="#FF8C00" d="M245.091,424.81h0.627v10.865c-0.627,0-1.254,0-2.089,0c-3.134,0-5.433,0.836-6.896,2.09
				c-2.298,2.089-2.925,5.433-2.925,8.984v14.417h-11.492v-35.521h10.656v9.193c1.88-6.477,5.851-10.029,11.91-10.029l0,0H245.091z"
				/>
			<path fill="#FF8C00" d="M282.074,445.914h-24.655c0,4.806,3.343,7.94,8.149,7.94s6.059-1.672,7.731-5.015l8.357,3.761
				c-2.925,5.851-8.984,9.402-16.297,9.402c-11.701,0-18.805-6.687-18.805-18.178c0-11.492,6.896-19.015,17.969-19.015
				c11.074,0,17.342,6.478,17.342,17.761v3.343l0,0H282.074z M271,439.228c0-5.015-2.299-7.731-6.687-7.731s-6.895,2.926-7.104,7.94
				h13.582L271,439.228z"/>
			<path fill="#FF8C00" d="M286.462,425.646h10.865v5.642c2.298-4.179,6.269-6.478,11.073-6.478c8.568,0,14.209,7.313,14.209,18.597
				c0,11.282-5.85,18.596-14.627,18.596c-8.775,0-7.73-2.09-10.237-5.433v18.387h-11.492v-49.311l0,0H286.462z M311.117,443.198
				c0-6.896-2.508-10.656-6.686-10.656c-4.18,0-6.687,3.343-6.687,9.82v2.09c0,5.85,2.507,9.611,6.687,9.611
				C308.609,454.063,311.117,449.885,311.117,443.198z"/>
			<path fill="#FF8C00" d="M326.789,448.631v-22.984h11.281v21.104c0,4.388,1.881,6.687,5.016,6.687s6.059-2.926,6.059-7.313
				v-20.268h11.492v35.521h-10.865v-6.478c-1.672,4.389-5.85,7.313-11.074,7.313c-8.357,0-11.908-5.015-11.908-13.372l0,0V448.631z"
				/>
			<path fill="#FF8C00" d="M377.978,455.734l-0.625,5.433h-10.238v-51.609h11.49v20.895c1.881-3.343,5.643-5.642,10.447-5.642
				c8.775,0,14.209,7.313,14.209,18.597c0,11.282-5.641,18.596-14.627,18.596C379.65,462.003,379.65,459.496,377.978,455.734
				L377.978,455.734z M391.56,443.407c0-6.687-2.299-10.656-6.895-10.656c-4.18,0-6.479,3.552-6.479,9.193v2.925
				c0,5.851,2.508,9.194,6.688,9.194C389.052,454.063,391.56,450.302,391.56,443.407L391.56,443.407L391.56,443.407z"/>
			<path fill="#FF8C00" d="M419.349,461.167h-11.492v-51.609h11.492V461.167L419.349,461.167z"/>
			<path fill="#FF8C00" d="M425.619,410.184h11.91v10.447h-11.91V410.184z M425.828,425.646h11.492v35.521h-11.492V425.646z"/>
			<path fill="#FF8C00" d="M441.08,443.407c0-11.492,7.104-18.597,18.805-18.597s15.463,4.598,16.926,12.537l-10.656,2.299
				c-0.627-4.18-2.926-6.478-6.479-6.478c-3.551,0-6.895,3.761-6.895,9.82s2.508,10.447,7.104,10.447
				c4.598,0,5.852-2.299,6.479-6.687l10.656,2.299c-1.254,7.73-7.941,12.745-16.926,12.745s-18.596-7.313-18.596-18.596l0,0
				L441.08,443.407z"/>
			<path fill="#FF8C00" d="M478.271,451.555c0-3.343,1.254-6.06,3.553-7.73c2.299-1.672,5.852-2.717,11.074-3.553l8.566-1.253
				v-1.254c0-3.97-1.672-5.851-5.223-5.851c-3.553,0-5.434,1.881-5.643,5.224h-11.283c0.627-7.939,6.896-12.536,17.135-12.536
				s16.506,4.388,16.506,14.626v11.7c0,4.179,0.418,7.731,1.045,9.82h-11.074c-0.418-1.671-0.418-3.552-0.627-5.642
				c-1.881,3.971-6.268,6.478-11.91,6.478c-5.641,0-12.119-4.179-12.119-10.447l0,0V451.555z M502.091,447.586v-2.926l-6.059,1.045
				c-4.18,0.836-6.061,2.299-6.061,4.806c0,2.508,2.09,4.179,5.016,4.179c4.387,0,7.313-2.925,7.313-7.104l0,0H502.091z"/>
			<path fill="#FF8C00" d="M519.015,425.646h10.865v6.896c2.508-5.224,6.479-7.731,11.701-7.731c7.73,0,11.492,4.807,11.492,14.418
				v21.938h-11.283V440.69c0-4.806-1.672-7.313-5.432-7.313c-3.762,0-6.27,3.134-6.27,8.566v19.223h-11.492v-35.521l0,0H519.015z"/>
			<path fill="#FF8C00" d="M556.835,451.555c0-3.343,1.252-6.06,3.551-7.73c2.299-1.672,5.852-2.717,11.074-3.553l8.566-1.253
				v-1.254c0-3.97-1.672-5.851-5.223-5.851c-3.553,0-5.434,1.881-5.643,5.224h-11.283c0.627-7.939,6.896-12.536,17.135-12.536
				s16.506,4.388,16.506,14.626v11.7c0,4.179,0.418,7.731,1.045,9.82H581.49c-0.418-1.671-0.418-3.552-0.627-5.642
				c-1.881,3.971-6.268,6.478-11.91,6.478c-5.641,0-12.117-4.179-12.117-10.447l0,0V451.555z M580.654,447.586v-2.926l-6.059,1.045
				c-4.18,0.836-6.061,2.299-6.061,4.806c0,2.508,2.09,4.179,5.016,4.179c4.389,0,7.313-2.925,7.313-7.104l0,0H580.654z"/>
		</g>
		<g>
			<path fill="#FF8C00" d="M85.249,370.903v88.384c0,0.835-0.836,1.671-1.671,1.671H55.37c-0.836,0-1.671-0.836-1.671-1.671v-56.624
				c0-0.627,0-1.045,0.626-1.463l27.999-31.342C83.369,368.813,85.249,369.44,85.249,370.903L85.249,370.903z"/>
			<path fill="#FF8C00" d="M4.179,461.167h27.79c0.836,0,1.672-0.836,1.672-1.671v-31.133c0-1.463-1.672-2.09-2.716-1.045
				l-27.79,31.133c-0.836,1.045,0,2.507,1.253,2.507l0,0L4.179,461.167z"/>
			<path fill="#FF8C00" d="M105.099,370.903v88.384c0,0.835,0.836,1.671,1.671,1.671h28.208c0.836,0,1.671-0.836,1.671-1.671
				v-56.624c0-0.627,0-1.045-0.626-1.463l-27.999-31.342C106.979,368.813,105.099,369.44,105.099,370.903L105.099,370.903
				L105.099,370.903z"/>
			<path fill="#FF8C00" d="M186.169,461.167h-27.79c-0.836,0-1.672-0.836-1.672-1.671v-31.133c0-1.463,1.672-2.09,2.716-1.045
				l27.999,31.342C188.258,459.705,187.422,461.167,186.169,461.167L186.169,461.167z"/>
		</g>
	</g>
</g>
</svg>
