<?xml version="1.0" encoding="UTF-8"?>
<svg xmlns="http://www.w3.org/2000/svg" xmlns:xlink="http://www.w3.org/1999/xlink" width="500pt" height="481pt" viewBox="0 0 500 481" version="1.1">
<g id="surface1">
<path style=" stroke:none;fill-rule:nonzero;fill:rgb(32.941176%,93.72549%,64.705882%);fill-opacity:1;" d="M 0 0 L 364.53125 0 L 364.535156 0.105469 C 364.417969 45.683594 364.519531 91.261719 364.488281 136.84375 C 364.464844 204.875 364.527344 272.910156 364.457031 340.945312 C 247.324219 340.902344 130.195312 340.941406 13.0625 340.925781 C 8.75 340.96875 4.433594 340.820312 0.121094 341.019531 L 0 340.90625 L 0 0 M 256.769531 27.652344 C 247.171875 58.136719 237.523438 88.609375 227.996094 119.109375 C 239.820312 119.113281 251.640625 119.097656 263.460938 119.121094 C 264.3125 119.199219 265.421875 118.859375 265.558594 117.882812 C 272.894531 95.703125 280.371094 73.570312 287.667969 51.375 C 277.328125 43.523438 267.152344 35.449219 256.769531 27.652344 M 133.5625 119.191406 C 133.644531 176.394531 133.582031 233.597656 133.59375 290.800781 C 145.289062 290.820312 156.988281 290.789062 168.683594 290.820312 C 168.710938 272.886719 168.6875 254.957031 168.695312 237.03125 C 168.746094 214.796875 168.59375 192.554688 168.769531 170.324219 C 168.929688 170.585938 169.242188 171.113281 169.398438 171.375 C 183.394531 211.183594 197.257812 251.046875 211.320312 290.832031 C 220.917969 290.765625 230.511719 290.84375 240.109375 290.789062 C 254.03125 250.554688 268.023438 210.339844 281.953125 170.109375 C 282.085938 169.71875 282.320312 169.394531 282.640625 169.128906 C 282.664062 209.664062 282.699219 250.195312 282.625 290.726562 C 294.457031 290.929688 306.296875 290.722656 318.136719 290.832031 C 318.207031 233.585938 318.148438 176.339844 318.164062 119.097656 C 300.714844 119.070312 283.265625 119.132812 265.816406 119.066406 C 265.308594 119.105469 264.976562 119.53125 264.835938 119.980469 C 252.277344 158.996094 239.652344 197.992188 227.117188 237.019531 C 226.742188 236.667969 226.480469 236.257812 226.335938 235.773438 C 213.417969 197.726562 200.449219 159.699219 187.523438 121.65625 C 187.1875 120.828125 187.078125 119.851562 186.511719 119.148438 C 176.816406 119.019531 167.113281 119.128906 157.414062 119.097656 C 149.464844 119.160156 141.507812 118.960938 133.5625 119.191406 Z M 133.5625 119.191406 "/>
<path style=" stroke:none;fill-rule:nonzero;fill:rgb(0%,28.627451%,21.960784%);fill-opacity:1;" d="M 364.535156 0.105469 C 384.816406 20.882812 404.964844 41.785156 425.195312 62.609375 C 450.144531 88.292969 474.996094 114.070312 500 139.699219 L 500 480.832031 L 151.792969 480.832031 C 146.71875 475.851562 141.355469 471.167969 136.164062 466.304688 C 90.824219 424.539062 45.429688 382.824219 0.121094 341.019531 C 4.433594 340.820312 8.75 340.96875 13.0625 340.925781 C 130.195312 340.941406 247.324219 340.902344 364.457031 340.945312 C 364.527344 272.910156 364.464844 204.875 364.488281 136.84375 C 364.519531 91.261719 364.417969 45.683594 364.535156 0.105469 Z M 364.535156 0.105469 "/>
<path style=" stroke:none;fill-rule:nonzero;fill:rgb(0%,28.627451%,21.960784%);fill-opacity:1;" d="M 256.769531 27.652344 C 267.152344 35.449219 277.328125 43.523438 287.667969 51.375 C 280.371094 73.570312 272.894531 95.703125 265.558594 117.882812 C 265.421875 118.859375 264.3125 119.199219 263.460938 119.121094 C 251.640625 119.097656 239.820312 119.113281 227.996094 119.109375 C 237.523438 88.609375 247.171875 58.136719 256.769531 27.652344 Z M 256.769531 27.652344 "/>
<path style=" stroke:none;fill-rule:nonzero;fill:rgb(0%,28.627451%,21.960784%);fill-opacity:1;" d="M 133.5625 119.191406 C 141.507812 118.960938 149.464844 119.160156 157.414062 119.097656 C 167.113281 119.128906 176.816406 119.019531 186.511719 119.148438 C 187.078125 119.851562 187.1875 120.828125 187.523438 121.65625 C 200.449219 159.699219 213.417969 197.726562 226.335938 235.773438 C 226.480469 236.257812 226.742188 236.667969 227.117188 237.019531 C 239.652344 197.992188 252.277344 158.996094 264.835938 119.980469 C 264.976562 119.53125 265.308594 119.105469 265.816406 119.066406 C 283.265625 119.132812 300.714844 119.070312 318.164062 119.097656 C 318.148438 176.339844 318.207031 233.585938 318.136719 290.832031 C 306.296875 290.722656 294.457031 290.929688 282.625 290.726562 C 282.699219 250.195312 282.664062 209.664062 282.640625 169.128906 C 282.320312 169.394531 282.085938 169.71875 281.953125 170.109375 C 268.023438 210.339844 254.03125 250.554688 240.109375 290.789062 C 230.511719 290.84375 220.917969 290.765625 211.320312 290.832031 C 197.257812 251.046875 183.394531 211.183594 169.398438 171.375 C 169.242188 171.113281 168.929688 170.585938 168.769531 170.324219 C 168.59375 192.554688 168.746094 214.796875 168.695312 237.03125 C 168.6875 254.957031 168.710938 272.886719 168.683594 290.820312 C 156.988281 290.789062 145.289062 290.820312 133.59375 290.800781 C 133.582031 233.597656 133.644531 176.394531 133.5625 119.191406 Z M 133.5625 119.191406 "/>
</g>
</svg>
