<?xml version="1.0" encoding="UTF-8" standalone="no"?>
<!-- Created with Inkscape (http://www.inkscape.org/) -->

<svg
   xmlns:dc="http://purl.org/dc/elements/1.1/"
   xmlns:cc="http://creativecommons.org/ns#"
   xmlns:rdf="http://www.w3.org/1999/02/22-rdf-syntax-ns#"
   xmlns:svg="http://www.w3.org/2000/svg"
   xmlns="http://www.w3.org/2000/svg"
   xmlns:sodipodi="http://sodipodi.sourceforge.net/DTD/sodipodi-0.dtd"
   xmlns:inkscape="http://www.inkscape.org/namespaces/inkscape"
   width="111.50875mm"
   height="129.24162mm"
   viewBox="0 0 111.50875 129.24162"
   version="1.1"
   id="svg1211"
   inkscape:version="0.92.4 (5da689c313, 2019-01-14)"
   sodipodi:docname="asg.svg">
  <defs
     id="defs1205" />
  <sodipodi:namedview
     id="base"
     pagecolor="#ffffff"
     bordercolor="#666666"
     borderopacity="1.0"
     inkscape:pageopacity="0.0"
     inkscape:pageshadow="2"
     inkscape:zoom="0.35"
     inkscape:cx="1135.0109"
     inkscape:cy="241.379"
     inkscape:document-units="mm"
     inkscape:current-layer="layer1"
     showgrid="false"
     fit-margin-top="0"
     fit-margin-left="0"
     fit-margin-right="0"
     fit-margin-bottom="0"
     inkscape:window-width="1920"
     inkscape:window-height="1018"
     inkscape:window-x="-8"
     inkscape:window-y="-8"
     inkscape:window-maximized="1" />
  <metadata
     id="metadata1208">
    <rdf:RDF>
      <cc:Work
         rdf:about="">
        <dc:format>image/svg+xml</dc:format>
        <dc:type
           rdf:resource="http://purl.org/dc/dcmitype/StillImage" />
        <dc:title></dc:title>
      </cc:Work>
    </rdf:RDF>
  </metadata>
  <g
     inkscape:label="Capa 1"
     inkscape:groupmode="layer"
     id="layer1"
     transform="translate(333.94486,-83.456568)">
    <g
       transform="matrix(0.26458333,0,0,0.26458333,-617.38279,-47.064378)"
       id="g1148">
      <path
         inkscape:connector-curvature="0"
         style="opacity:1;vector-effect:none;fill:#d21922;fill-opacity:1;fill-rule:evenodd;stroke:none;stroke-width:0.99999988;stroke-linecap:butt;stroke-linejoin:miter;stroke-miterlimit:4;stroke-dasharray:none;stroke-dashoffset:0;stroke-opacity:1"
         d="m 1277.2494,493.30752 v 86.86935 a 108.23066,108.23066 0 0 1 10.4215,1.57417 108.23066,108.23066 0 0 1 10.4825,2.67691 108.23066,108.23066 0 0 1 10.1627,3.71023 108.23066,108.23066 0 0 1 9.7417,4.70565 108.23066,108.23066 0 0 1 9.2239,5.65478 108.23066,108.23066 0 0 1 8.6116,6.54708 108.23066,108.23066 0 0 1 7.9171,7.37415 108.23066,108.23066 0 0 1 6.6123,7.52778 h 98.1726 a 194.9087,194.9087 0 0 0 -171.3459,-126.6401 z"
         id="path894-9" />
      <path
         inkscape:connector-curvature="0"
         style="opacity:1;vector-effect:none;fill:#d21922;fill-opacity:1;fill-rule:evenodd;stroke:none;stroke-width:0.99999988;stroke-linecap:butt;stroke-linejoin:miter;stroke-miterlimit:4;stroke-dasharray:none;stroke-dashoffset:0;stroke-opacity:1"
         d="m 1255.0913,493.47167 a 194.9087,194.9087 0 0 0 -183.8298,194.35225 194.9087,194.9087 0 0 0 183.8298,194.51849 v -86.86936 a 108.23066,108.23066 0 0 1 -10.4236,-1.57627 108.23066,108.23066 0 0 1 -10.4825,-2.6748 108.23066,108.23066 0 0 1 -10.1625,-3.71023 108.23066,108.23066 0 0 1 -9.7418,-4.70565 108.23066,108.23066 0 0 1 -9.2219,-5.65479 108.23066,108.23066 0 0 1 -8.6138,-6.54708 108.23066,108.23066 0 0 1 -7.915,-7.37415 108.23066,108.23066 0 0 1 -7.1405,-8.12756 108.23066,108.23066 0 0 1 -6.2925,-8.80099 108.23066,108.23066 0 0 1 -5.3833,-9.38395 108.23066,108.23066 0 0 1 -4.4194,-9.8743 108.23066,108.23066 0 0 1 -3.4114,-10.26783 108.23066,108.23066 0 0 1 -2.3696,-10.55613 108.23066,108.23066 0 0 1 -1.3027,-10.73925 108.23066,108.23066 0 0 1 -0.2715,-7.65615 108.23066,108.23066 0 0 1 0.5409,-10.80449 108.23066,108.23066 0 0 1 1.6162,-10.69715 108.23066,108.23066 0 0 1 2.6769,-10.48248 108.23066,108.23066 0 0 1 3.7102,-10.16261 108.23066,108.23066 0 0 1 4.7057,-9.74171 108.23066,108.23066 0 0 1 5.6548,-9.22191 108.23066,108.23066 0 0 1 6.5471,-8.61369 108.23066,108.23066 0 0 1 7.3741,-7.91501 108.23066,108.23066 0 0 1 8.1276,-7.14055 108.23066,108.23066 0 0 1 8.7989,-6.29244 108.23066,108.23066 0 0 1 9.3839,-5.3833 108.23066,108.23066 0 0 1 9.8764,-4.41944 108.23066,108.23066 0 0 1 10.2657,-3.41139 108.23066,108.23066 0 0 1 10.5562,-2.36966 108.23066,108.23066 0 0 1 7.3174,-0.88809 z"
         id="path890-4" />
      <path
         inkscape:connector-curvature="0"
         style="opacity:1;vector-effect:none;fill:#d21922;fill-opacity:1;fill-rule:evenodd;stroke:none;stroke-width:1;stroke-linecap:butt;stroke-linejoin:miter;stroke-miterlimit:4;stroke-dasharray:none;stroke-dashoffset:0;stroke-opacity:1"
         d="m 1277.2494,701.97453 v 80.51801 l 115.2906,1.51101 c -1.6502,6.15872 -3.5449,11.93077 -5.6464,17.34105 -2.1013,5.41026 -4.4093,10.4589 -6.8879,15.16919 -2.4786,4.71029 -5.1288,9.0817 -7.9108,13.14048 -2.7821,4.05878 -5.6968,7.80541 -8.7084,11.26116 -3.0116,3.45572 -6.1201,6.62168 -9.2871,9.52283 -3.1672,2.90117 -6.3921,5.53678 -9.6409,7.93185 -3.2487,2.39507 -6.521,4.54861 -9.7774,6.48605 -3.2564,1.93744 -6.4967,3.6593 -9.687,5.18758 -3.1902,1.52829 -6.3295,2.86251 -9.3797,4.03011 -3.0502,1.16759 -6.0111,2.16877 -8.8472,3.02416 -2.8363,0.85539 -5.5477,1.56546 -8.0962,2.15711 -2.5482,0.59164 -4.9351,1.06311 -7.1216,1.43948 -4.3727,0.75274 -7.9477,1.1244 -10.4298,1.30688 -2.4821,0.18249 -3.8702,0.17677 -3.8702,0.17677 v 99.60156 a 216.08944,216.08944 0 0 0 215.4625,-216.06643 216.08944,216.08944 0 0 0 -9.6301,-63.73885 z"
         id="path932-6" />
    </g>
  </g>
</svg>
